<?xml version="1.0" encoding="utf-8"?>
<!-- Generator: Adobe Illustrator 17.1.0, SVG Export Plug-In . SVG Version: 6.00 Build 0)  -->
<!DOCTYPE svg PUBLIC "-//W3C//DTD SVG 1.1//EN" "http://www.w3.org/Graphics/SVG/1.1/DTD/svg11.dtd">
<svg version="1.1" id="Layer_1" xmlns="http://www.w3.org/2000/svg" xmlns:xlink="http://www.w3.org/1999/xlink" x="0px" y="0px"
	 viewBox="0 0 650 450" enable-background="new 0 0 650 450" xml:space="preserve">
<g>
	<g>
		<g opacity="0.2">
			<polygon points="27,129.6 24.8,121.7 15.3,122.8 7.1,92.7 138.5,78 138.1,65.8 196.6,59.7 198.9,80.1 202.6,109.6 164.2,114.1 
				160.5,152.7 186.7,152.1 186.2,171 259.8,176.7 256.4,69.4 400.9,116.1 409.5,184.3 471.3,202.7 499.1,201.6 500.3,190.7 
				529.1,194.9 560,103.3 620,119.5 597.7,228 651,226.7 636.1,295.5 474,279.4 476.9,299.4 487.5,298.3 488.1,345.4 436.9,339.7 
				435.5,333.5 412.5,336.6 352.9,348.3 332,355 262.2,371.6 259,189.5 184.8,185.9 169,376.4 141.5,385.1 73.3,403.6 1,137.1 			
				"/>
		</g>
		<g>
			<polygon fill="#FFFFFF" points="26,126.6 23.8,118.7 14.3,119.8 6.1,89.7 137.5,75 137.1,62.8 195.6,56.7 197.9,77.1 
				201.6,106.6 163.2,111.1 159.5,149.7 185.7,149.1 185.2,168 258.8,173.7 255.4,66.4 399.9,113.1 408.5,181.3 470.3,199.7 
				498.1,198.6 499.3,187.7 528.1,191.9 559,100.3 619,116.5 596.7,225 650,223.7 635.1,292.5 473,276.4 475.9,296.4 486.5,295.3 
				487.1,342.4 435.9,336.7 434.5,330.5 411.5,333.6 351.9,345.3 331,352 261.2,368.6 258,186.5 183.8,182.9 168,373.4 140.5,382.1 
				72.3,400.6 0,134.1 			"/>
		</g>
	</g>
	<path fill="none" stroke="#8D8D8E" stroke-width="2" stroke-linecap="round" stroke-linejoin="round" stroke-miterlimit="10" d="
		M131,185.3"/>
	<path fill="none" stroke="#8D8D8E" stroke-width="2" stroke-linecap="round" stroke-linejoin="round" stroke-miterlimit="10" d="
		M113.9,184"/>
	<path fill="none" stroke="#8D8D8E" stroke-width="2" stroke-linecap="round" stroke-linejoin="round" stroke-miterlimit="10" d="
		M94.2,312.2"/>
	<path fill="none" stroke="#8D8D8E" stroke-width="2" stroke-linecap="round" stroke-linejoin="round" stroke-miterlimit="10" d="
		M94.2,312.2"/>
	<path fill="none" stroke="#8D8D8E" stroke-width="2" stroke-linecap="round" stroke-linejoin="round" stroke-miterlimit="10" d="
		M94.2,312.2"/>
	<path fill="none" stroke="#8D8D8E" stroke-width="2" stroke-linecap="round" stroke-linejoin="round" stroke-miterlimit="10" d="
		M256.8,110.6"/>
	<path fill="none" stroke="#8D8D8E" stroke-width="2" stroke-linecap="round" stroke-linejoin="round" stroke-miterlimit="10" d="
		M289.7,119.8"/>
	<polyline fill="#DEE0E2" points="173.1,101.4 168.8,59.5 137.1,62.8 137.5,75 6.1,89.7 14.3,119.8 23.8,118.7 173.1,101.4 	"/>
	
		<path fill="#E92B25" stroke="#8D8D8E" stroke-width="2" stroke-linecap="round" stroke-linejoin="round" stroke-miterlimit="10" d="
		M307.8,166.8"/>
	<path fill="none" stroke="#8D8D8E" stroke-width="2" stroke-linecap="round" stroke-linejoin="round" stroke-miterlimit="10" d="
		M138.7,315.6"/>
	<path fill="none" stroke="#8D8D8E" stroke-width="2" stroke-linecap="round" stroke-linejoin="round" stroke-miterlimit="10" d="
		M137.1,336.9"/>
	<path fill="#8D8D8E" d="M568.8,265"/>
	<path fill="none" stroke="#8D8D8E" stroke-width="2" stroke-linecap="round" stroke-linejoin="round" stroke-miterlimit="10" d="
		M329.7,204.8"/>
	<path fill="none" stroke="#8D8D8E" stroke-width="2" stroke-linecap="round" stroke-linejoin="round" stroke-miterlimit="10" d="
		M431.5,270.2"/>
	<path fill="none" stroke="#8D8D8E" stroke-width="2" stroke-linecap="round" stroke-linejoin="round" stroke-miterlimit="10" d="
		M473,276.4"/>
	
		<polyline fill="none" stroke="#8D8D8E" stroke-width="2" stroke-linecap="round" stroke-linejoin="round" stroke-miterlimit="10" points="
		434.5,330.5 428.6,273 473,276.4 	"/>
	<path fill="none" stroke="#8D8D8E" stroke-width="2" stroke-linecap="round" stroke-linejoin="round" stroke-miterlimit="10" d="
		M422.1,224.5"/>
	<path fill="none" stroke="#8D8D8E" stroke-width="2" stroke-linecap="round" stroke-linejoin="round" stroke-miterlimit="10" d="
		M394.4,110.6"/>
	<path fill="none" stroke="#8D8D8E" stroke-width="2" stroke-linecap="round" stroke-linejoin="round" stroke-miterlimit="10" d="
		M558.7,203.3"/>
	<path fill="none" stroke="#8D8D8E" stroke-width="2" stroke-linecap="round" stroke-linejoin="round" stroke-miterlimit="10" d="
		M413.4,209.7"/>
	<path fill="none" stroke="#8D8D8E" stroke-width="2" stroke-linecap="round" stroke-linejoin="round" stroke-miterlimit="10" d="
		M409.9,208.5"/>
	<path fill="none" stroke="#8D8D8E" stroke-width="2" stroke-linecap="round" stroke-linejoin="round" stroke-miterlimit="10" d="
		M455.9,282.4"/>
	<path fill="none" stroke="#8D8D8E" stroke-width="2" stroke-linecap="round" stroke-linejoin="round" stroke-miterlimit="10" d="
		M451,329.7"/>
	<polyline fill="#DEE0E2" points="43.5,128.6 148.8,116.8 148.8,170.4 54.6,165.7 43.5,128.6 	"/>
	
		<polyline fill="none" stroke="#8D8D8E" stroke-width="2" stroke-linecap="round" stroke-linejoin="round" stroke-miterlimit="10" points="
		509,236.8 548.8,244.7 558.7,208.6 528.1,191.9 	"/>
	<path fill="none" stroke="#8D8D8E" stroke-width="2" stroke-linecap="round" stroke-linejoin="round" stroke-miterlimit="10" d="
		M392.4,137.6"/>
	<path fill="none" stroke="#8D8D8E" stroke-width="2" stroke-linecap="round" stroke-linejoin="round" stroke-miterlimit="10" d="
		M509,224.5"/>
	<path fill="none" stroke="#8D8D8E" stroke-width="2" stroke-linecap="round" stroke-linejoin="round" stroke-miterlimit="10" d="
		M173.2,101.2"/>
	<path fill="none" stroke="#8D8D8E" stroke-miterlimit="10" d="M54.6,167.9"/>
	<path fill="none" stroke="#8D8D8E" stroke-miterlimit="10" d="M43.5,128.6"/>
	<path fill="none" stroke="#8D8D8E" stroke-width="2" stroke-linecap="round" stroke-linejoin="round" stroke-miterlimit="10" d="
		M114,183.7"/>
	<path fill="none" stroke="#8D8D8E" stroke-width="2" stroke-linecap="round" stroke-linejoin="round" stroke-miterlimit="10" d="
		M108.8,183.3"/>
	<line fill="#DEE0E2" x1="94.2" y1="312.2" x2="138.8" y2="315.3"/>
	<polyline fill="#DEE0E2" points="94.2,312.2 114.4,389.2 134.7,383.7 138.7,315.6 	"/>
	<path fill="#DEE0E2" d="M161.3,181.2c-1.2,21.1-15.5,177.9-17.2,199.8l23.9-7.5l15.8-190.6L161.3,181.2"/>
	<polygon fill="#DEE0E2" points="102.7,392.3 26,126.6 0,134.1 72.3,400.6 	"/>
	<polygon fill="#DEE0E2" points="256.4,97.3 403.3,139.7 399.9,113.1 255.4,66.4 	"/>
	<path fill="none" stroke="#8D8D8E" stroke-width="2" stroke-linecap="round" stroke-linejoin="round" stroke-miterlimit="10" d="
		M408.2,195.8"/>
	<path fill="none" stroke="#8D8D8E" stroke-width="2" stroke-linecap="round" stroke-linejoin="round" stroke-miterlimit="10" d="
		M290.6,167.4"/>
	<path fill="none" stroke="#8D8D8E" stroke-width="2" stroke-linecap="round" stroke-linejoin="round" stroke-miterlimit="10" d="
		M289.8,119.5"/>
	<path fill="none" stroke="#8D8D8E" stroke-width="2" stroke-linecap="round" stroke-linejoin="round" stroke-miterlimit="10" d="
		M323.2,191.7"/>
	<path fill="none" stroke="#8D8D8E" stroke-width="2" stroke-linecap="round" stroke-linejoin="round" stroke-miterlimit="10" d="
		M290.6,181.5"/>
	<path fill="none" stroke="#8D8D8E" stroke-width="2" stroke-linecap="round" stroke-linejoin="round" stroke-miterlimit="10" d="
		M267.2,186.4"/>
	<path fill="none" stroke="#8D8D8E" stroke-width="2" stroke-linecap="round" stroke-linejoin="round" stroke-miterlimit="10" d="
		M329.8,204.5"/>
	<path fill="none" stroke="#8D8D8E" stroke-width="2" stroke-linecap="round" stroke-linejoin="round" stroke-miterlimit="10" d="
		M303.1,289.4"/>
	<path fill="none" stroke="#8D8D8E" stroke-width="2" stroke-linecap="round" stroke-linejoin="round" stroke-miterlimit="10" d="
		M302.6,259.1"/>
	<path fill="none" stroke="#8D8D8E" stroke-width="2" stroke-linecap="round" stroke-linejoin="round" stroke-miterlimit="10" d="
		M303.1,289.4"/>
	<path fill="none" stroke="#8D8D8E" stroke-width="2" stroke-linecap="round" stroke-linejoin="round" stroke-miterlimit="10" d="
		M414.6,289.8"/>
	<path fill="none" stroke="#8D8D8E" stroke-width="2" stroke-linecap="round" stroke-linejoin="round" stroke-miterlimit="10" d="
		M414.6,289.8"/>
	<path fill="none" stroke="#8D8D8E" stroke-width="2" stroke-linecap="round" stroke-linejoin="round" stroke-miterlimit="10" d="
		M422.2,224.2"/>
	<path fill="none" stroke="#8D8D8E" stroke-width="2" stroke-linecap="round" stroke-linejoin="round" stroke-miterlimit="10" d="
		M302.6,259.1"/>
	
		<line fill="none" stroke="#8D8D8E" stroke-width="2" stroke-linecap="round" stroke-linejoin="round" stroke-miterlimit="10" x1="470.3" y1="199.7" x2="509" y2="236.8"/>
	<polyline fill="#DEE0E2" points="473,276.4 635.1,292.5 650,223.7 596.7,225 619,116.5 602.1,111.9 568.8,265 478.6,253.1 
		473,276.4 	"/>
	<path fill="#8D8D8E" d="M473,276.4"/>
	<path fill="none" stroke="#8D8D8E" stroke-width="2" stroke-linecap="round" stroke-linejoin="round" stroke-miterlimit="10" d="
		M619.3,262.4"/>
	<path fill="none" stroke="#8D8D8E" stroke-width="2" stroke-linecap="round" stroke-linejoin="round" stroke-miterlimit="10" d="
		M602.1,260.7"/>
	<path fill="none" stroke="#8D8D8E" stroke-width="2" stroke-linecap="round" stroke-linejoin="round" stroke-miterlimit="10" d="
		M496.7,250.6"/>
	<polyline fill="#DEE0E2" points="131.1,185 108.8,183.3 108.7,183.6 57.7,179.8 57.8,179.5 85.2,279.3 90.4,299.7 90.3,299.9 
		90.7,301.6 140.1,305.4 140.2,305.1 144.8,245.2 148.8,186.2 	"/>
	<path fill="none" stroke="#8D8D8E" stroke-width="2" stroke-linecap="round" stroke-linejoin="round" stroke-miterlimit="10" d="
		M321.5,164.8"/>
	
		<line fill="none" stroke="#8D8D8E" stroke-width="2" stroke-linecap="round" stroke-linejoin="round" stroke-miterlimit="10" x1="258.2" y1="193" x2="294.3" y2="198.6"/>
	
		<line fill="none" stroke="#8D8D8E" stroke-width="2" stroke-linecap="round" stroke-linejoin="round" stroke-miterlimit="10" x1="294.3" y1="198.6" x2="297.9" y2="249.1"/>
	
		<line fill="none" stroke="#8D8D8E" stroke-width="2" stroke-linecap="round" stroke-linejoin="round" stroke-miterlimit="10" x1="297.9" y1="249.1" x2="259.1" y2="244.1"/>
	
		<line fill="none" stroke="#8D8D8E" stroke-width="2" stroke-linecap="round" stroke-linejoin="round" stroke-miterlimit="10" x1="260.4" y1="257.5" x2="396.3" y2="270.9"/>
	
		<line fill="none" stroke="#8D8D8E" stroke-width="2" stroke-linecap="round" stroke-linejoin="round" stroke-miterlimit="10" x1="396.3" y1="270.9" x2="403.6" y2="334.3"/>
	
		<text transform="matrix(1 0 0 1 290.1699 326.0888)" fill="none" stroke="#8D8D8E" stroke-linecap="round" stroke-linejoin="round" stroke-miterlimit="10" font-family="'MyriadPro-Regular'" font-size="9.0272">6115</text>
	
		<text transform="matrix(1 0 0 1 271.0781 229.0966)" fill="none" stroke="#8D8D8E" stroke-linecap="round" stroke-linejoin="round" stroke-miterlimit="10" font-family="'MyriadPro-Regular'" font-size="9.0272">6121</text>
	
		<text transform="matrix(1 0 0 1 454.0304 317.5986)" fill="none" stroke="#8D8D8E" stroke-linecap="round" stroke-linejoin="round" stroke-miterlimit="10" font-family="'MyriadPro-Regular'" font-size="9.0272">6101</text>
	
		<text transform="matrix(1 0 0 1 517.4642 220.9837)" fill="none" stroke="#8D8D8E" stroke-linecap="round" stroke-linejoin="round" stroke-miterlimit="10" font-family="'MyriadPro-Regular'" font-size="9.0272">6012</text>
	
		<text transform="matrix(1 0 0 1 176.1436 85.6133)" fill="none" stroke="#8D8D8E" stroke-linecap="round" stroke-linejoin="round" stroke-miterlimit="10" font-family="'MyriadPro-Regular'" font-size="9.0272">6501</text>
	<text transform="matrix(1 0 0 1 326.2344 298.1357)"><tspan x="0" y="0" fill="none" stroke="#8D8D8E" stroke-linecap="round" stroke-linejoin="round" stroke-miterlimit="10" font-family="'MyriadPro-Regular'" font-size="9.0272">COLLABORATIVE</tspan><tspan x="10.3" y="10.8" fill="none" stroke="#8D8D8E" stroke-linecap="round" stroke-linejoin="round" stroke-miterlimit="10" font-family="'MyriadPro-Regular'" font-size="9.0272">COMMONS</tspan></text>
	<path fill="#DEE0E2" d="M222.1,274.2"/>
	<path fill="#DEE0E2" d="M158.1,418.7"/>
	<polygon fill="#DEE0E2" points="323.2,200.4 327.8,254.8 392.8,260.5 385.9,208.5 	"/>
	<polygon fill="#DEE0E2" points="378.6,147.5 384.8,195.8 322.1,187.6 320.3,167.4 307.8,166.8 308,125.4 	"/>
	<polygon fill="#DEE0E2" points="259.1,173.9 290,170.7 290,123 256.4,115.2 	"/>
</g>
</svg>
