<?xml version="1.0" encoding="utf-8"?>
<!-- Generator: Adobe Illustrator 17.1.0, SVG Export Plug-In . SVG Version: 6.00 Build 0)  -->
<!DOCTYPE svg PUBLIC "-//W3C//DTD SVG 1.1//EN" "http://www.w3.org/Graphics/SVG/1.1/DTD/svg11.dtd">
<svg version="1.1" id="Layer_1" xmlns="http://www.w3.org/2000/svg" xmlns:xlink="http://www.w3.org/1999/xlink" x="0px" y="0px"
	 viewBox="0 0 650 450" enable-background="new 0 0 650 450" xml:space="preserve">
<g opacity="0.2">
	<polyline fill="none" stroke="#FFFFFF" stroke-miterlimit="10" points="255.6,171.7 252.9,47.9 402.3,106.3 408.5,179.4 
		470.3,197.9 498.1,196.8 499.3,185.9 528.1,190 559.1,98.4 619.1,114.7 596.7,223.2 650,221.9 635.1,290.7 569,284.1 522.2,380.1 
		286.4,374.1 285,286 256.9,282.8 258.1,184.7 	"/>
</g>
<g>
	<g opacity="0.2">
		<polygon points="255.6,171.7 252.9,47.9 402.3,106.3 408.5,179.4 470.3,197.9 498.1,196.8 499.3,185.9 528.1,190 559.1,98.4 
			619.1,114.7 596.7,223.2 650,221.9 635.1,290.7 569,284.1 522.2,380.1 286.4,374.1 285,286 256.9,282.8 258.1,184.7 		"/>
	</g>
	<g>
		<polygon fill="#FFFFFF" points="252.6,170.7 249.9,46.9 399.3,105.3 405.5,178.4 467.3,196.9 495.1,195.8 496.3,184.9 525.1,189 
			556.1,97.4 616.1,113.7 593.7,222.2 647,220.9 632.1,289.7 566,283.1 519.2,379.1 283.4,373.1 282,285 253.9,281.8 255.1,183.7 		
			"/>
	</g>
</g>
<line fill="none" x1="255.1" y1="183.7" x2="253.9" y2="281.8"/>
<line fill="none" x1="253.9" y1="281.8" x2="282" y2="285"/>
<line fill="none" x1="283.4" y1="373.1" x2="519.2" y2="379.1"/>
<line fill="none" x1="519.2" y1="379.1" x2="566" y2="283.1"/>
<line fill="none" x1="566" y1="283.1" x2="632.1" y2="289.7"/>
<line fill="none" x1="632.1" y1="289.7" x2="647" y2="220.9"/>
<line fill="none" x1="647" y1="220.9" x2="593.7" y2="222.2"/>
<line fill="none" x1="593.7" y1="222.2" x2="616.1" y2="113.7"/>
<line fill="none" x1="556.1" y1="97.4" x2="616.1" y2="113.7"/>
<line fill="none" x1="496.3" y1="184.9" x2="495.1" y2="195.8"/>
<line fill="none" x1="495.1" y1="195.8" x2="467.3" y2="196.9"/>
<line fill="none" x1="467.3" y1="196.9" x2="405.5" y2="178.4"/>
<line fill="none" x1="405.5" y1="178.4" x2="399.3" y2="105.3"/>
<line fill="none" stroke="#8D8D8E" stroke-width="2" stroke-linecap="round" stroke-linejoin="round" stroke-miterlimit="10" x1="441.3" y1="329.4" x2="479.3" y2="330.8"/>
<line fill="none" stroke="#8D8D8E" stroke-width="2" stroke-linecap="round" stroke-linejoin="round" stroke-miterlimit="10" x1="479.3" y1="330.8" x2="485.6" y2="305.9"/>
<path fill="none" stroke="#B11F24" stroke-width="2" stroke-miterlimit="10" d="M549.9,129.4"/>
<path fill="none" stroke="#B11F24" stroke-width="2" stroke-miterlimit="10" d="M549.9,129.4"/>
<polygon fill="none" stroke="#8D8D8E" stroke-width="2" stroke-linecap="round" stroke-linejoin="round" stroke-miterlimit="10" points="
	331.4,156.6 292.8,163.2 291.8,103.4 325.4,117.6 "/>
<polygon fill="#DEE0E2" points="412.4,261.7 415.5,223.1 377.6,209.1 293.5,198.2 294.2,249.4 "/>
<polygon fill="#DEE0E2" points="407.8,298.6 295,287 294.5,259.9 411.3,272 "/>
<polyline fill="#DEE0E2" points="401.8,205.7 488.6,235.7 505.4,233.5 499.2,184.6 488.6,196.9 472.2,199.1 411,179.1 401.8,205.7 
	"/>
<line fill="none" stroke="#B11F24" stroke-width="2" stroke-miterlimit="10" x1="522.9" y1="199.1" x2="547.6" y2="209.3"/>
<line fill="none" x1="312.5" y1="324.4" x2="284.8" y2="321.5"/>
<polyline fill="#DEE0E2" points="498,312.7 485.2,307.5 490.5,273.5 447.6,270.9 441.3,329.4 415.8,328.6 426.3,226.9 528.7,262.2 
	503.2,317 497.2,315 "/>
<polygon fill="#DEE0E2" points="401.3,129.1 399.3,105.3 249.9,46.9 250.8,76.1 "/>
<polygon fill="#DEE0E2" points="282.4,164.5 280.6,100 250.8,86.9 253.9,167.9 "/>
<line fill="none" stroke="#B11F24" stroke-width="2" stroke-miterlimit="10" x1="282" y1="184" x2="282" y2="285"/>
<polyline fill="#DEE0E2" points="284.1,285 253.8,281.8 255.1,183.7 255.1,184 284,184 "/>
<polygon fill="#DEE0E2" points="593.7,222.2 647,220.9 632.1,289.7 566,283.1 519.2,379.1 283.4,373.1 284.8,321.5 312.5,324.4 
	314.3,342.3 407.2,340.5 432.1,341.6 475.2,343.8 499.6,349.3 555.6,238.8 562.3,200.7 594.2,108.8 616.1,113.7 "/>
<polyline fill="#DEE0E2" points="521.7,202.7 527.6,184.9 555.5,97.4 583.2,106.1 546.9,213.4 "/>
<text transform="matrix(1 0 0 1 298.6363 153)" fill="none" stroke="#8D8D8E" stroke-linecap="round" stroke-linejoin="round" stroke-miterlimit="10" font-family="'MyriadPro-Regular'" font-size="12">8228</text>
<text transform="matrix(1 0 0 1 450.1363 321.5479)" fill="none" stroke="#8D8D8E" stroke-linecap="round" stroke-linejoin="round" stroke-miterlimit="10" font-family="'MyriadPro-Regular'" font-size="12">8102</text>
</svg>
