<?xml version="1.0" encoding="utf-8"?>
<!-- Generator: Adobe Illustrator 17.1.0, SVG Export Plug-In . SVG Version: 6.00 Build 0)  -->
<!DOCTYPE svg PUBLIC "-//W3C//DTD SVG 1.1//EN" "http://www.w3.org/Graphics/SVG/1.1/DTD/svg11.dtd">
<svg version="1.1" id="Layer_1" xmlns="http://www.w3.org/2000/svg" xmlns:xlink="http://www.w3.org/1999/xlink" x="0px" y="0px"
	 viewBox="0 0 650 450" enable-background="new 0 0 650 450" xml:space="preserve">
<g>
	<g>
		<g opacity="0.2">
			<polygon points="34.7,250.7 35.3,237.4 35.8,224.2 36.3,210.9 36.9,197.7 37.9,184.5 39,171.3 40,158.2 41.1,145 41.5,138.8 
				41.9,132.6 42.3,126.5 42.6,120.3 43,114.1 43.4,107.9 43.8,101.7 44.2,95.6 44.6,90.3 45.1,85 45.6,79.7 46,74.5 46.5,69.2 
				47,63.9 47.4,58.7 47.9,53.4 61.3,51.9 74.8,50.4 88.3,48.8 101.7,47.3 115.2,45.8 128.7,44.3 142.1,42.8 155.6,41.3 160,40.7 
				164.4,40.1 168.8,39.5 173.2,38.9 177.6,38.3 182,37.7 186.4,37.1 190.8,36.5 190.9,32.2 190.9,27.9 191,23.6 191.1,19.2 
				191.2,14.9 191.3,10.6 191.3,6.3 191.4,2 199.5,4.6 207.6,7.2 215.6,9.9 223.7,12.5 231.8,15.1 239.9,17.7 247.9,20.4 256,23 
				280.5,31.4 305,39.8 329.5,48.2 354,56.6 378.5,65 403,73.4 427.5,81.8 452,90.1 452,89.3 452.1,88.5 452.2,87.6 452.2,86.8 
				452.3,85.9 452.3,85.1 452.4,84.3 452.5,83.4 468.5,82.9 484.6,82.4 500.7,81.9 516.8,81.4 532.9,80.9 549,80.4 565,79.9 
				581.1,79.4 583.7,100.7 586.3,122 588.9,143.3 591.4,164.6 594,185.9 596.6,207.1 599.2,228.4 601.8,249.7 604.1,250.2 
				606.5,250.7 608.8,251.2 611.2,251.7 613.6,252.2 615.9,252.7 618.3,253.2 620.6,253.7 620.7,256 620.7,258.2 620.8,260.5 
				620.8,262.7 620.9,265 620.9,267.2 620.9,269.5 621,271.7 620.8,278.6 620.7,285.5 620.5,292.4 620.3,299.3 620.2,306.2 
				620,313.1 619.8,320 619.7,326.9 620.5,330.6 621.3,334.4 622.1,338.1 622.9,341.8 623.7,345.6 624.6,349.3 625.4,353 
				626.2,356.8 626.7,360.5 627.2,364.2 627.7,367.9 628.2,371.6 628.7,375.3 629.2,379.1 629.7,382.8 630.2,386.5 631.5,393.6 
				632.8,400.8 634.2,408 635.5,415.1 636.9,422.3 638.2,429.4 639.5,436.6 640.9,443.7 629.3,442.3 617.6,440.9 606,439.4 
				594.4,438 582.8,436.6 571.2,435.1 559.6,433.7 547.9,432.3 542.7,431.7 537.5,431.1 532.3,430.5 527.1,429.9 521.9,429.3 
				516.7,428.7 511.4,428.1 506.2,427.4 497.7,426.7 489.2,425.9 480.6,425.2 472.1,424.4 463.5,423.7 455,422.9 446.5,422.2 
				437.9,421.4 427.6,420.4 417.2,419.3 406.9,418.3 396.5,417.2 386.2,416.2 375.8,415.1 365.4,414.1 355.1,413 352.9,385.4 
				350.6,357.8 348.4,330.2 346.1,302.5 343.9,274.9 341.6,247.3 339.4,219.6 337.1,192 317.6,190.7 298.1,189.4 278.6,188.1 
				259.1,186.8 239.6,185.5 220.1,184.2 200.6,182.9 181.1,181.6 180.1,196 179.2,210.3 178.2,224.7 177.2,239 176.2,253.4 
				175.3,267.7 174.3,282 173.3,296.4 171.9,313 170.6,329.5 169.2,346.1 167.8,362.7 166.5,379.2 165.1,395.8 163.7,412.4 
				162.3,429 152.6,431.8 143,434.7 133.3,437.6 123.6,440.5 113.9,443.3 104.2,446.2 94.5,449.1 84.8,452 57.7,335.5 29.5,341 
				20.4,328.3 11.4,315.6 36.3,310.6 49.6,307.2 41.3,275.9 			"/>
		</g>
		<g>
			<polygon fill="#FFFFFF" points="33.7,247.7 34.3,234.4 34.8,221.2 35.3,207.9 35.9,194.7 36.9,181.5 38,168.3 39,155.2 40.1,142 
				40.5,135.8 40.9,129.6 41.3,123.5 41.6,117.3 42,111.1 42.4,104.9 42.8,98.7 43.2,92.6 43.6,87.3 44.1,82 44.6,76.7 45,71.5 
				45.5,66.2 46,60.9 46.4,55.7 46.9,50.4 60.3,48.9 73.8,47.4 87.3,45.8 100.7,44.3 114.2,42.8 127.7,41.3 141.1,39.8 154.6,38.3 
				159,37.7 163.4,37.1 167.8,36.5 172.2,35.9 176.6,35.3 181,34.7 185.4,34.1 189.8,33.5 189.9,29.2 189.9,24.9 190,20.6 
				190.1,16.2 190.2,11.9 190.3,7.6 190.3,3.3 190.4,-1 198.5,1.6 206.6,4.2 214.6,6.9 222.7,9.5 230.8,12.1 238.9,14.7 246.9,17.4 
				255,20 279.5,28.4 304,36.8 328.5,45.2 353,53.6 377.5,62 402,70.4 426.5,78.8 451,87.1 451,86.3 451.1,85.5 451.2,84.6 
				451.2,83.8 451.3,82.9 451.3,82.1 451.4,81.3 451.5,80.4 467.5,79.9 483.6,79.4 499.7,78.9 515.8,78.4 531.9,77.9 548,77.4 
				564,76.9 580.1,76.4 582.7,97.7 585.3,119 587.9,140.3 590.4,161.6 593,182.9 595.6,204.1 598.2,225.4 600.8,246.7 603.1,247.2 
				605.5,247.7 607.8,248.2 610.2,248.7 612.6,249.2 614.9,249.7 617.3,250.2 619.6,250.7 619.7,253 619.7,255.2 619.8,257.5 
				619.8,259.7 619.9,262 619.9,264.2 619.9,266.5 620,268.7 619.8,275.6 619.7,282.5 619.5,289.4 619.3,296.3 619.2,303.2 
				619,310.1 618.8,317 618.7,323.9 619.5,327.6 620.3,331.4 621.1,335.1 621.9,338.8 622.7,342.6 623.6,346.3 624.4,350 
				625.2,353.8 625.7,357.5 626.2,361.2 626.7,364.9 627.2,368.6 627.7,372.3 628.2,376.1 628.7,379.8 629.2,383.5 630.5,390.6 
				631.8,397.8 633.2,405 634.5,412.1 635.9,419.3 637.2,426.4 638.5,433.6 639.9,440.7 628.3,439.3 616.6,437.9 605,436.4 
				593.4,435 581.8,433.6 570.2,432.1 558.6,430.7 546.9,429.3 541.7,428.7 536.5,428.1 531.3,427.5 526.1,426.9 520.9,426.3 
				515.7,425.7 510.4,425.1 505.2,424.4 496.7,423.7 488.2,422.9 479.6,422.2 471.1,421.4 462.5,420.7 454,419.9 445.5,419.2 
				436.9,418.4 426.6,417.4 416.2,416.3 405.9,415.3 395.5,414.2 385.2,413.2 374.8,412.1 364.4,411.1 354.1,410 351.9,382.4 
				349.6,354.8 347.4,327.2 345.1,299.5 342.9,271.9 340.6,244.3 338.4,216.6 336.1,189 316.6,187.7 297.1,186.4 277.6,185.1 
				258.1,183.8 238.6,182.5 219.1,181.2 199.6,179.9 180.1,178.6 179.1,193 178.2,207.3 177.2,221.7 176.2,236 175.2,250.4 
				174.3,264.7 173.3,279 172.3,293.4 170.9,310 169.6,326.5 168.2,343.1 166.8,359.7 165.5,376.2 164.1,392.8 162.7,409.4 
				161.3,426 151.6,428.8 142,431.7 132.3,434.6 122.6,437.5 112.9,440.3 103.2,443.2 93.5,446.1 83.8,449 56.7,332.5 28.5,338 
				19.4,325.3 10.4,312.6 35.3,307.6 48.6,304.2 40.3,272.9 			"/>
		</g>
	</g>
	<polyline fill="none" stroke="#8D8D8E" stroke-width="2" stroke-miterlimit="10" points="529.2,78 547.5,211.5 470.5,201.3 
		455.3,80.3 	"/>
	<polygon fill="#DEE0E2" points="560,202.7 543,76.9 580.1,76.4 600.8,246.7 619.6,250.7 618.7,323.9 624.4,350 591.5,356.3 
		576.9,202.4 	"/>
	<path fill="none" stroke="#8D8D8E" stroke-width="2" stroke-miterlimit="10" d="M350.3,371.8"/>
	<polyline fill="#DEE0E2" points="493.6,388.7 494.1,370.8 406.6,364.3 397,265 445.8,258.3 440.5,215.3 337.1,201.3 354.1,410 
		621.4,438.6 614.3,388.2 574.8,384 571.8,397.6 493.6,388.5 	"/>
	<polyline fill="none" stroke="#8D8D8E" stroke-width="2" stroke-miterlimit="10" points="467.3,175.4 450.7,176.9 447.5,201.4 
		357,189.2 349.9,147.9 377.5,62.6 	"/>
	<polyline fill="none" stroke="#8D8D8E" stroke-width="2" stroke-miterlimit="10" points="204.9,128.9 294.2,138.8 299.3,110.3 
		340.8,131.6 361.5,56.5 	"/>
	<polyline fill="none" stroke="#8D8D8E" stroke-width="2" stroke-miterlimit="10" points="189.8,33.5 204.9,128.9 206.1,143.9 
		166.8,157.8 162.2,193.4 	"/>
	<line fill="none" stroke="#8D8D8E" stroke-width="2" stroke-miterlimit="10" x1="66.1" y1="372.7" x2="168" y2="345.1"/>
	<polygon fill="#DEE0E2" points="56.7,332.5 122.1,312.7 122.6,260.1 132.5,258.8 133.8,228.4 161.6,227.2 162.2,193.4 36.3,189 
		33.7,247.7 48.6,304.2 10.4,312.6 28.5,338 	"/>
	<polygon fill="none" stroke="#8D8D8E" stroke-width="2" stroke-miterlimit="10" points="533.8,323.9 514.2,337.4 488.7,339.7 
		478,251.6 542.5,255.9 	"/>
	
		<text transform="matrix(1 0 0 1 499.4326 297.2314)" fill="none" stroke="#8D8D8E" stroke-miterlimit="10" font-family="'MyriadPro-Regular'" font-size="11.67">4102</text>
	
		<text transform="matrix(1 0 0 1 497.4883 183.8262)" fill="none" stroke="#8D8D8E" stroke-miterlimit="10" font-family="'MyriadPro-Regular'" font-size="11.67">4211</text>
	
		<text transform="matrix(1 0 0 1 486.3555 117.9722)" fill="none" stroke="#8D8D8E" stroke-miterlimit="10" font-family="'MyriadPro-Regular'" font-size="11.67">4215</text>
	
		<text transform="matrix(1 0 0 1 229.689 78.7964)" fill="none" stroke="#8D8D8E" stroke-miterlimit="10" font-family="'MyriadPro-Regular'" font-size="11.67">4307</text>
	
		<text transform="matrix(1 0 0 1 306.2031 86.1221)" fill="none" stroke="#8D8D8E" stroke-miterlimit="10" font-family="'MyriadPro-Regular'" font-size="11.67">4303</text>
	<text transform="matrix(1 0 0 1 99.8984 110.8306)"><tspan x="0" y="0" fill="none" stroke="#8D8D8E" stroke-miterlimit="10" font-family="'MyriadPro-Regular'" font-size="11.67">     4401</tspan><tspan x="0" y="14" fill="none" stroke="#8D8D8E" stroke-miterlimit="10" font-family="'MyriadPro-Regular'" font-size="11.67">R A S H I D</tspan></text>
	
		<text transform="matrix(1 0 0 1 106.1743 407.8008)" fill="none" stroke="#8D8D8E" stroke-miterlimit="10" font-family="'MyriadPro-Regular'" font-size="11.67">4405</text>
	
		<text transform="matrix(1 0 0 1 403.7764 106.3667)" fill="none" stroke="#8D8D8E" stroke-miterlimit="10" font-family="'MyriadPro-Regular'" font-size="11.67">4301</text>
</g>
</svg>
