<?xml version="1.0" encoding="utf-8"?>
<!-- Generator: Adobe Illustrator 17.1.0, SVG Export Plug-In . SVG Version: 6.00 Build 0)  -->
<!DOCTYPE svg PUBLIC "-//W3C//DTD SVG 1.1//EN" "http://www.w3.org/Graphics/SVG/1.1/DTD/svg11.dtd">
<svg version="1.1" id="Layer_1" xmlns="http://www.w3.org/2000/svg" xmlns:xlink="http://www.w3.org/1999/xlink" x="0px" y="0px"
	 viewBox="0 0 650 450" enable-background="new 0 0 650 450" xml:space="preserve">
<g>
	<g opacity="0.2">
		<polygon points="24.3,123.9 22.1,116 12.6,117.1 4.4,87 135.8,72.3 135.3,60.1 193.9,54 196.1,74.4 199.9,103.9 161.4,108.4 
			157.7,147 183.9,146.4 183.5,165.3 253.8,170.8 251.1,47 400.5,105.4 406.6,178.5 468.4,197 496.2,195.9 497.4,185 526.2,189.2 
			557.1,97.6 617.1,113.8 594.8,222.3 648,221 633.2,289.7 567.1,283.2 520.3,379.1 284.6,373.2 283.2,285.1 255.1,281.9 
			256.3,183.8 182,180.1 166.2,370.6 138.8,379.3 70.5,397.8 -1.7,131.4 		"/>
		<polygon fill="none" stroke="#000000" stroke-miterlimit="10" points="24.3,123.9 22.1,116 12.6,117.1 4.4,87 135.8,72.3 
			135.3,60.1 193.9,54 196.1,74.4 199.9,103.9 161.4,108.4 157.7,147 183.9,146.4 183.5,165.3 253.8,170.8 251.1,47 400.5,105.4 
			406.6,178.5 468.4,197 496.2,195.9 497.4,185 526.2,189.2 557.1,97.6 617.1,113.8 594.8,222.3 648,221 633.2,289.7 567.1,283.2 
			520.3,379.1 284.6,373.2 283.2,285.1 255.1,281.9 256.3,183.8 182,180.1 166.2,370.6 138.8,379.3 70.5,397.8 -1.7,131.4 		"/>
	</g>
	<g>
		<polygon fill="#FFFFFF" points="21.3,122.9 19.1,115 9.6,116.1 1.4,86 132.8,71.3 132.3,59.1 190.9,53 193.1,73.4 196.9,102.9 
			158.4,107.4 154.7,146 180.9,145.4 180.5,164.3 250.8,169.8 248.1,46 397.5,104.4 403.6,177.5 465.4,196 493.2,194.9 494.4,184 
			523.2,188.2 554.1,96.6 614.1,112.8 591.8,221.3 645,220 630.2,288.7 564.1,282.2 517.3,378.1 281.6,372.2 280.2,284.1 
			252.1,280.9 253.3,182.8 179,179.1 163.2,369.6 135.8,378.3 67.5,396.8 -4.7,130.4 		"/>
		<polygon fill="none" stroke="#FFFFFF" stroke-miterlimit="10" points="21.3,122.9 19.1,115 9.6,116.1 1.4,86 132.8,71.3 
			132.3,59.1 190.9,53 193.1,73.4 196.9,102.9 158.4,107.4 154.7,146 180.9,145.4 180.5,164.3 250.8,169.8 248.1,46 397.5,104.4 
			403.6,177.5 465.4,196 493.2,194.9 494.4,184 523.2,188.2 554.1,96.6 614.1,112.8 591.8,221.3 645,220 630.2,288.7 564.1,282.2 
			517.3,378.1 281.6,372.2 280.2,284.1 252.1,280.9 253.3,182.8 179,179.1 163.2,369.6 135.8,378.3 67.5,396.8 -4.7,130.4 		"/>
	</g>
</g>
<line fill="none" stroke="#8D8D8E" stroke-width="2" stroke-linecap="round" stroke-linejoin="round" stroke-miterlimit="10" x1="448.1" y1="267.7" x2="442.6" y2="323.5"/>
<line fill="none" stroke="#8D8D8E" stroke-width="2" stroke-linecap="round" stroke-linejoin="round" stroke-miterlimit="10" x1="442.6" y1="323.5" x2="479.9" y2="326.8"/>
<line fill="none" stroke="#8D8D8E" stroke-width="2" stroke-linecap="round" stroke-linejoin="round" stroke-miterlimit="10" x1="479.9" y1="326.8" x2="503.6" y2="305.6"/>
<line fill="none" stroke="#8D8D8E" stroke-width="2" stroke-linecap="round" stroke-linejoin="round" stroke-miterlimit="10" x1="503.6" y1="305.6" x2="517.6" y2="275.3"/>
<line fill="none" stroke="#8D8D8E" stroke-width="2" stroke-linecap="round" stroke-linejoin="round" stroke-miterlimit="10" x1="517.6" y1="275.3" x2="448.1" y2="267.7"/>
<line fill="none" stroke="#8D8D8E" stroke-width="2" stroke-linecap="round" stroke-linejoin="round" stroke-miterlimit="10" x1="608.2" y1="130.8" x2="602.5" y2="155"/>
<text transform="matrix(1.0818 0 0 1 459.5293 300.9385)" fill="none" stroke="#8D8D8E" stroke-width="2" stroke-linecap="round" stroke-linejoin="round" stroke-miterlimit="10" font-family="'MyriadPro-Regular'" font-size="9.4848">9022</text>
<text transform="matrix(1.0818 0 0 1 459.5293 300.9385)" fill="none" stroke="#8D8D8E" stroke-linecap="round" stroke-linejoin="round" stroke-miterlimit="10" font-family="'MyriadPro-Regular'" font-size="9.4848">9022</text>
<polyline fill="#DEE0E2" points="282.9,161.5 250.8,169.8 250.6,85.1 282.5,97 "/>
<polygon fill="#DEE0E2" points="254.9,183.3 253.7,281.4 282.7,283.7 282.4,182.8 "/>
<polyline fill="#DEE0E2" points="389.8,129.6 402.1,129.3 399.1,104.9 249.7,46.5 250.6,75.1 389.8,129.6 "/>
<polygon fill="#DEE0E2" points="377.4,195.2 292.9,182.3 291.4,101.1 369.1,131.6 "/>
<polygon fill="#DEE0E2" points="416.1,220.1 412,259.3 293.9,247.1 293,195.8 379,207.3 "/>
<polygon fill="#DEE0E2" points="408.1,296.2 317.1,286.1 319.1,260.1 410.1,270.3 "/>
<line fill="none" x1="312.2" y1="322.5" x2="313.9" y2="339.9"/>
<line fill="none" x1="313.9" y1="339.9" x2="430.8" y2="338.4"/>
<line fill="none" x1="430.8" y1="338.4" x2="475.6" y2="342.2"/>
<polygon fill="#DEE0E2" points="554.1,96.9 614.1,113.1 591.8,221.6 645,220.3 630.2,289 564.1,282.5 517.3,378.4 491.8,377.8 
	558,223.9 562.6,196.2 523.2,188.5 "/>
<polyline fill="#DEE0E2" points="475.6,342.2 473.3,378.4 283.4,373.2 283.4,318.6 312.2,322.5 "/>
<polyline fill="#DEE0E2" points="474.6,227.9 486.9,195.7 465.4,196 403.6,177.5 401.3,203.3 474.6,227.9 "/>
<line fill="none" stroke="#8D8D8E" stroke-width="2" stroke-linecap="round" stroke-linejoin="round" stroke-miterlimit="10" x1="553.8" y1="117.3" x2="598.5" y2="128.4"/>
<line fill="none" stroke="#8D8D8E" stroke-width="2" stroke-linecap="round" stroke-linejoin="round" stroke-miterlimit="10" x1="553.8" y1="117.3" x2="545.8" y2="139.5"/>
<line fill="none" stroke="#8D8D8E" stroke-width="2" stroke-linecap="round" stroke-linejoin="round" stroke-miterlimit="10" x1="545.8" y1="139.5" x2="602.5" y2="155"/>
<g>
	
		<text transform="matrix(1.0818 0 0 1 563.6362 135.7916)" fill="none" stroke="#8D8D8E" stroke-width="2" stroke-linecap="round" stroke-linejoin="round" stroke-miterlimit="10" font-family="'MyriadPro-Regular'" font-size="9.4848">9001</text>
</g>
<g>
	
		<text transform="matrix(1.0818 0 0 1 563.6362 135.7916)" fill="none" stroke="#8D8D8E" stroke-linecap="round" stroke-linejoin="round" stroke-miterlimit="10" font-family="'MyriadPro-Regular'" font-size="9.4848">9001</text>
</g>
<line fill="none" stroke="#8D8D8E" stroke-width="2" stroke-linecap="round" stroke-linejoin="round" stroke-miterlimit="10" x1="598.9" y1="128.3" x2="602.1" y2="155"/>
</svg>
