<?xml version="1.0" encoding="utf-8"?>
<!-- Generator: Adobe Illustrator 17.1.0, SVG Export Plug-In . SVG Version: 6.00 Build 0)  -->
<!DOCTYPE svg PUBLIC "-//W3C//DTD SVG 1.1//EN" "http://www.w3.org/Graphics/SVG/1.1/DTD/svg11.dtd">
<svg version="1.1" xmlns="http://www.w3.org/2000/svg" xmlns:xlink="http://www.w3.org/1999/xlink" x="0px" y="0px"
	 viewBox="0 0 650 450" enable-background="new 0 0 650 450" xml:space="preserve">
<g id="Layer_1">
	<g>
		<g opacity="0.2">
			<polygon points="34.1,123.4 32.1,115.6 22.7,116.6 14.6,87.1 143.8,72.6 143.3,60.6 200.9,54.6 203.1,74.7 206.8,103.7 
				169,108.1 165.4,146 191.1,145.4 190.7,164 263,169.7 259.7,64.2 401.7,110.1 410.1,177.1 470.8,195.2 498.1,194.1 499.4,183.4 
				527.6,187.5 558,97.5 617,113.4 595.1,220.1 647.4,218.8 632.8,286.4 473.5,270.6 476.3,290.2 486.8,289.2 487.3,335.4 
				437,329.8 435.6,323.8 413.1,326.8 354.5,338.3 333.9,344.9 265.4,361.2 262.2,182.3 189.2,178.6 173.7,365.9 146.7,374.4 
				79.6,392.7 8.6,130.7 			"/>
		</g>
		<g>
			<polygon fill="#FFFFFF" points="33.1,120.4 31.1,112.6 21.7,113.6 13.6,84.1 142.8,69.6 142.3,57.6 199.9,51.6 202.1,71.7 
				205.8,100.7 168,105.1 164.4,143 190.1,142.4 189.7,161 262,166.7 258.7,61.2 400.7,107.1 409.1,174.1 469.8,192.2 497.1,191.1 
				498.4,180.4 526.6,184.5 557,94.5 616,110.4 594.1,217.1 646.4,215.8 631.8,283.4 472.5,267.6 475.3,287.2 485.8,286.2 
				486.3,332.4 436,326.8 434.6,320.8 412.1,323.8 353.5,335.3 332.9,341.9 264.4,358.2 261.2,179.3 188.2,175.6 172.7,362.9 
				145.7,371.4 78.6,389.7 7.6,127.7 			"/>
		</g>
	</g>
	
		<text transform="matrix(1 0 0 1 176.5693 79.3257)" fill="none" stroke="#8D8D8E" stroke-linecap="round" stroke-linejoin="round" stroke-miterlimit="10" font-family="'MyriadPro-Regular'" font-size="9.0272">7501</text>
	<polyline fill="#DEE0E2" points="301.2,323.9 330.8,323.2 330.8,342.4 300.4,350.8 300.2,322.4 	"/>
	
		<line fill="none" stroke="#C1272D" stroke-width="2" stroke-linecap="round" stroke-linejoin="round" stroke-miterlimit="10" x1="59.4" y1="172.6" x2="148.9" y2="180.3"/>
	<polygon fill="#DEE0E2" points="163.3,55.8 142.3,57.6 142.8,69.6 13.6,84.1 21.7,113.6 31.1,112.6 160.2,97.1 	"/>
	<line fill="#C1272D" x1="115.2" y1="375.6" x2="135.1" y2="370.5"/>
	<path fill="none" stroke="#C1272D" stroke-width="2" stroke-linecap="round" stroke-linejoin="round" stroke-miterlimit="10" d="
		M593.8,106.9"/>
	<path fill="none" stroke="#C1272D" stroke-width="2" stroke-linecap="round" stroke-linejoin="round" stroke-miterlimit="10" d="
		M589.4,119.7"/>
	<path fill="none" stroke="#C1272D" stroke-width="2" stroke-linecap="round" stroke-linejoin="round" stroke-miterlimit="10" d="
		M509.6,212.3c-1.5,0.2-3.1,0.4-4.6,0.6"/>
	<path fill="none" stroke="#C1272D" stroke-width="2" stroke-miterlimit="10" d="M-3.6,420.1"/>
	<path fill="none" stroke="#C1272D" stroke-width="2" stroke-miterlimit="10" d="M-2.8,13.6"/>
	<polygon fill="#DEE0E2" points="56.4,161.3 144,168.7 148.9,110.7 45.4,122.3 	"/>
	
		<polyline fill="none" stroke="#8D8D8E" stroke-width="2" stroke-linecap="round" stroke-linejoin="round" stroke-miterlimit="10" points="
		57,170.1 91.3,294.8 141.2,294.8 149.9,178.1 	"/>
	<path fill="#DEE0E2" d="M159.1,172.4l29.2,3.3l-15.5,187.3l-27,8.5C147.1,350.2,157.4,193.6,159.1,172.4"/>
	
		<line fill="none" stroke="#C1272D" stroke-width="2" stroke-linecap="round" stroke-linejoin="round" stroke-miterlimit="10" x1="94.5" y1="303.7" x2="139.1" y2="305.8"/>
	<path fill="none" stroke="#C1272D" stroke-width="2" stroke-linecap="round" stroke-linejoin="round" stroke-miterlimit="10" d="
		M115.2,375.6"/>
	<path fill="none" stroke="#C1272D" stroke-width="2" stroke-linecap="round" stroke-linejoin="round" stroke-miterlimit="10" d="
		M124.1,373.5"/>
	<polygon fill="#DEE0E2" points="104.3,384.1 33.1,120.4 7.6,127.7 78.6,389.7 	"/>
	<polygon fill="#DEE0E2" points="288.3,160.4 287.5,113.4 260.1,108.7 262,166.7 	"/>
	<path fill="none" stroke="#C1272D" stroke-width="2" stroke-linecap="round" stroke-linejoin="round" stroke-miterlimit="10" d="
		M373.5,126.6"/>
	<polyline fill="#DEE0E2" points="288.3,174.3 261.2,179.3 264.4,358.2 288.3,351.8 288.3,349.8 	"/>
	<path fill="#DEE0E2" d="M505,213.9c0.9,5.1,1.9,10.2,2.8,15.3l-16.5,2.2L409.5,203l-3.6-1l0,0l-18.2-6.1l-2.8-21.9l9.4-1.2
		l-5.1-39.2l14.7-2.8l5.6,44.4l60.7,18.1l27.3-1.1l1.2-10.7l28.3,4.1l30.4-90l25.9,7v3.2l-8.5,25l-25.2,75.6l4.8,1.6L542.5,243
		l-28.7-3l-3.5-26.4l0,0"/>
	<polyline fill="#DEE0E2" points="418.1,322.6 423.9,270.7 450.8,273.2 450.7,273.5 445.9,319.9 434.9,322.2 418.1,322.6 
		418.1,321.8 	"/>
	<polyline fill="#DEE0E2" points="112.9,376.6 89.5,300.6 140.1,302.9 135.5,371.2 112.9,376.6 	"/>
	<polygon fill="#DEE0E2" points="376.3,147 382,192.9 321.5,184.5 316.9,158.4 298,159.9 298,117.5 	"/>
	
		<polyline fill="none" stroke="#8D8D8E" stroke-width="2" stroke-linecap="round" stroke-linejoin="round" stroke-miterlimit="10" points="
		356.8,286.3 300.6,280.4 299,193.5 384.5,206 418.1,220.5 410.2,280.8 357.9,276 356.8,286.3 300.6,280.4 300,250.5 299,193.5 
		326.7,197.2 384.5,206 418.1,220.5 410.2,280.8 413.4,254.8 413.4,254.8 413.6,254.5 418.1,220.5 	"/>
	
		<line fill="none" stroke="#C1272D" stroke-width="2" stroke-linecap="round" stroke-linejoin="round" stroke-miterlimit="10" x1="549.2" y1="237.1" x2="589.5" y2="242.2"/>
	<polygon fill="#DEE0E2" points="589,246.6 617,111.6 594.2,105.6 546.3,241.4 	"/>
	<polyline fill="#DEE0E2" points="458,240 458,266 458.8,266.3 631.7,283.4 646.4,215.8 618,216.5 606.5,253 458.7,239.6 	"/>
	
		<line fill="none" stroke="#8D8D8E" stroke-width="2" stroke-linecap="round" stroke-linejoin="round" stroke-miterlimit="10" x1="199.9" y1="51.6" x2="205.8" y2="100.7"/>
	
		<line fill="none" stroke="#8D8D8E" stroke-width="2" stroke-linecap="round" stroke-linejoin="round" stroke-miterlimit="10" x1="205.8" y1="100.7" x2="168" y2="105.1"/>
	
		<line fill="none" stroke="#8D8D8E" stroke-width="2" stroke-linecap="round" stroke-linejoin="round" stroke-miterlimit="10" x1="148.9" y1="180.3" x2="59.4" y2="172.6"/>
	
		<text transform="matrix(1 0 0 1 103.46 276.6122)" fill="none" stroke="#8D8D8E" stroke-linecap="round" stroke-linejoin="round" stroke-miterlimit="10" font-family="'MyriadPro-Regular'" font-size="9.0272">7412</text>
	
		<text transform="matrix(1 0 0 1 326 266.2673)" fill="none" stroke="#8D8D8E" stroke-linecap="round" stroke-linejoin="round" stroke-miterlimit="10" font-family="'MyriadPro-Regular'" font-size="9.0272">7114</text>
</g>
<g id="Layer_2">
	<g>
		<path fill="#DEE0E2" d="M218.1,67.7"/>
	</g>
</g>
</svg>
