<?xml version="1.0" encoding="utf-8"?>
<!-- Generator: Adobe Illustrator 17.1.0, SVG Export Plug-In . SVG Version: 6.00 Build 0)  -->
<!DOCTYPE svg PUBLIC "-//W3C//DTD SVG 1.1//EN" "http://www.w3.org/Graphics/SVG/1.1/DTD/svg11.dtd">
<svg version="1.1" id="Layer_1" xmlns="http://www.w3.org/2000/svg" xmlns:xlink="http://www.w3.org/1999/xlink" x="0px" y="0px"
	 viewBox="0 0 650 450" enable-background="new 0 0 650 450" xml:space="preserve">
<g>
	<g>
		<g opacity="0.2">
			<polygon points="34.4,111.2 33.2,106.5 31.9,101.7 26.1,102.3 20.3,102.9 15.4,84.8 10.5,66.6 89.9,57.7 169.3,48.8 169.1,41.4 
				168.8,34 204.2,30.3 239.6,26.6 241,39 242.4,51.3 244.7,69.1 246.9,87 223.7,89.7 200.4,92.4 198.2,115.8 195.9,139.1 
				211.8,138.7 227.6,138.4 361.1,150.1 356.7,110.6 352.3,51.7 393,65.6 474.1,92.8 475.1,89.1 476.1,85.5 536.3,83.6 596.5,81.7 
				615.5,243.8 633.9,245.5 635.5,334.4 637.1,423.3 511.1,408.6 385.2,393.8 375.6,291 366.1,188.2 295.7,183.7 225.3,179.2 
				215.7,294.5 206.2,409.7 189.6,414.9 173,420.2 131.7,431.4 90.4,442.6 46.7,281.4 3,120.3 18.7,115.8 			"/>
		</g>
		<g>
			<polygon fill="#FFFFFF" points="33.4,108.2 32.2,103.5 30.9,98.7 25.1,99.3 19.3,99.9 14.4,81.8 9.5,63.6 88.9,54.7 168.3,45.8 
				168.1,38.4 167.8,31 203.2,27.3 238.6,23.6 240,36 241.4,48.3 243.7,66.1 245.9,84 222.7,86.7 199.4,89.4 197.2,112.8 
				194.9,136.1 210.8,135.7 226.6,135.4 360.1,147.1 355.7,107.6 351.3,48.7 392,62.6 473.1,89.8 474.1,86.1 475.1,82.5 535.3,80.6 
				595.5,78.7 614.5,240.8 632.9,242.5 634.5,331.4 636.1,420.3 510.1,405.6 384.2,390.8 374.6,288 365.1,185.2 294.7,180.7 
				224.3,176.2 214.7,291.5 205.2,406.7 188.6,411.9 172,417.2 130.7,428.4 89.4,439.6 45.7,278.4 2,117.3 17.7,112.8 			"/>
		</g>
	</g>
	<path fill="none" stroke="#C1272D" stroke-width="2" stroke-miterlimit="10" d="M-13.9,476.3"/>
	<polygon fill="#DEE0E2" points="244.3,70.9 30.9,98.7 19.3,99.9 9.5,63.6 168.3,45.8 167.8,31 238.6,23.6 	"/>
	<polygon fill="#DEE0E2" points="119.1,431.2 33.4,108.2 2,117.3 89.4,439.6 	"/>
	<polygon fill="#DEE0E2" points="160.5,364.3 115.1,360.8 106.8,329.2 161.6,334.3 	"/>
	<polygon fill="#DEE0E2" points="176.9,131.7 50.6,122 104.4,316.4 162.3,320.8 	"/>
	<polyline fill="#DEE0E2" points="194,176 224,176 205.2,406.7 176.9,415.6 194,176 	"/>
	
		<line fill="none" stroke="#8D8D8E" stroke-width="2" stroke-linecap="round" stroke-linejoin="round" stroke-miterlimit="10" x1="464.8" y1="113.3" x2="505.7" y2="126.5"/>
	
		<line fill="none" stroke="#8D8D8E" stroke-width="2" stroke-linecap="round" stroke-linejoin="round" stroke-miterlimit="10" x1="505.7" y1="126.5" x2="545" y2="129"/>
	
		<line fill="none" stroke="#8D8D8E" stroke-width="2" stroke-linecap="round" stroke-linejoin="round" stroke-miterlimit="10" x1="545" y1="129" x2="538.3" y2="80.5"/>
	<polyline fill="#DEE0E2" points="584.4,200.1 609.4,197.2 595.5,78.7 563.9,80.8 584.4,200.1 	"/>
	<polygon fill="#DEE0E2" points="407,185.5 397.1,116.8 550.8,165.8 554.7,197.9 459.4,192.8 	"/>
	<polygon fill="#DEE0E2" points="467.2,249.5 460,210.1 384.4,199.2 389.3,259.9 	"/>
	
		<polyline fill="none" stroke="#8D8D8E" stroke-width="2" stroke-linecap="round" stroke-linejoin="round" stroke-miterlimit="10" points="
		422.5,336.3 415.5,284 432.5,279.4 415.5,284 432.5,279.4 431.2,269.1 373.4,275.4 431.2,269.1 	"/>
	<polyline fill="none" stroke="#8D8D8E" stroke-miterlimit="10" points="412.9,394.2 422.5,336.3 379.8,343.7 422.5,336.3 	"/>
	<polyline fill="#DEE0E2" points="412.9,394.2 636.1,420.3 632.9,242.5 614.4,240.8 597,242.8 597,243.8 599.4,381.5 418.5,361.1 	
		"/>
	
		<line fill="none" stroke="#8D8D8E" stroke-width="2" stroke-linecap="round" stroke-linejoin="round" stroke-miterlimit="10" x1="495.4" y1="255" x2="556" y2="248.5"/>
	
		<line fill="none" stroke="#8D8D8E" stroke-width="2" stroke-linecap="round" stroke-linejoin="round" stroke-miterlimit="10" x1="556" y1="248.5" x2="545.3" y2="301.7"/>
	
		<line fill="none" stroke="#8D8D8E" stroke-width="2" stroke-linecap="round" stroke-linejoin="round" stroke-miterlimit="10" x1="545.3" y1="301.7" x2="535.2" y2="322.8"/>
	
		<line fill="none" stroke="#8D8D8E" stroke-width="2" stroke-linecap="round" stroke-linejoin="round" stroke-miterlimit="10" x1="535.2" y1="322.8" x2="505.6" y2="323.7"/>
	
		<line fill="none" stroke="#8D8D8E" stroke-width="2" stroke-linecap="round" stroke-linejoin="round" stroke-miterlimit="10" x1="505.6" y1="323.7" x2="495.4" y2="255"/>
	
		<text transform="matrix(1 0 0 1 512.9746 287.9268)" fill="#C86F29" stroke="#8D8D8E" stroke-miterlimit="10" font-family="'MyriadPro-Regular'" font-size="10.9172">5222</text>
	
		<text transform="matrix(1 0 0 1 384.3532 310.157)" fill="#C86F29" stroke="#8D8D8E" stroke-miterlimit="10" font-family="'MyriadPro-Regular'" font-size="10.9172">5117</text>
	
		<text transform="matrix(1 0 0 1 390.2236 368.2896)" fill="#C86F29" stroke="#8D8D8E" stroke-miterlimit="10" font-family="'MyriadPro-Regular'" font-size="10.9172">5113</text>
	
		<text transform="matrix(1 0 0 1 495.3808 109.103)" fill="#C86F29" stroke="#8D8D8E" stroke-miterlimit="10" font-family="'MyriadPro-Regular'" font-size="10.9172">5205</text>
	<polygon fill="#DEE0E2" points="473.1,89.8 464,113 464,113 354.1,79.9 351.3,48.7 	"/>
	<path fill="none" stroke="#8D8D8E" stroke-width="2" stroke-linecap="round" stroke-linejoin="round" stroke-miterlimit="10" d="
		M599.5,380.5"/>
</g>
</svg>
