<?xml version="1.0" encoding="utf-8"?>
<!-- Generator: Adobe Illustrator 17.1.0, SVG Export Plug-In . SVG Version: 6.00 Build 0)  -->
<!DOCTYPE svg PUBLIC "-//W3C//DTD SVG 1.1//EN" "http://www.w3.org/Graphics/SVG/1.1/DTD/svg11.dtd">
<svg version="1.1" id="Layer_1" xmlns="http://www.w3.org/2000/svg" xmlns:xlink="http://www.w3.org/1999/xlink" x="0px" y="0px"
	 viewBox="0 0 650 450" enable-background="new 0 0 650 450" xml:space="preserve">
<g>
	<g opacity="0.2">
		<polyline points="517.5,75.9 612.9,64.7 626,154.2 650.7,161.3 594.5,358.5 437.1,369.6 373.8,382 351.7,389.1 277.7,406.7 
			274.3,213.6 195.6,209.7 178.8,411.8 149.7,421 77.3,440.7 0.7,158 28.2,150.1 26,141.7 15.9,142.8 7.2,111 146.5,95.3 
			187.1,89.7 187.5,85.8 199.7,84.4 201.6,59.3 271.8,82 271.6,66.5 422.8,125.7 521.2,123 517.5,75.9 		"/>
	</g>
	<g>
		<polyline fill="#FFFFFF" points="516.5,72.9 611.9,61.7 625,151.2 649.7,158.3 593.5,355.5 436.1,366.6 372.8,379 350.7,386.1 
			276.7,403.7 273.3,210.6 194.6,206.7 177.8,408.8 148.7,418 76.3,437.7 -0.3,155 27.2,147.1 25,138.7 14.9,139.8 6.2,108 
			145.5,92.3 186.1,86.7 186.5,82.8 198.7,81.4 200.6,56.3 270.8,79 270.6,63.5 421.8,122.7 520.2,120 516.5,72.9 		"/>
	</g>
</g>
<line fill="none" stroke="#8D8D8E" stroke-width="2" stroke-miterlimit="10" x1="404.5" y1="115.9" x2="416.6" y2="186.5"/>
<line fill="none" stroke="#8D8D8E" stroke-width="2" stroke-miterlimit="10" x1="416.6" y1="186.5" x2="522.9" y2="172.6"/>
<path fill="none" stroke="#8D8D8E" stroke-width="2" stroke-miterlimit="10" d="M414.3,245c41.4,0,75,19.9,75,44.5"/>
<path fill="none" stroke="#8D8D8E" stroke-width="2" stroke-miterlimit="10" d="M339.3,289.5c0-24.6,33.6-44.5,75-44.5"/>
<path fill="none" stroke="#8D8D8E" stroke-width="2" stroke-miterlimit="10" d="M414.3,333.9c-41.4,0-75-19.9-75-44.5"/>
<path fill="none" stroke="#8D8D8E" stroke-width="2" stroke-miterlimit="10" d="M489.3,289.5c0,24.6-33.6,44.5-75,44.5"/>
<text transform="matrix(1 0 0 1 384.7296 293.2396)" fill="none" stroke="#8D8D8E" stroke-miterlimit="10" font-family="'MyriadPro-Regular'" font-size="9.572">TAZZA D’ORO</text>
<text transform="matrix(1 0 0 1 449.7343 151.2251)" fill="none" stroke="#8D8D8E" stroke-miterlimit="10" font-family="'MyriadPro-Regular'" font-size="9.572">3000</text>
<line fill="none" stroke="#969696" stroke-width="2" stroke-miterlimit="10" x1="519.1" y1="121.2" x2="522.9" y2="172.6"/>
<g>
	<g opacity="0.2">
		<path d="M274.3,213.6l-78.8-3.9l-16.8,202.1l-29.1,9.2l-72.4,19.7L0.7,158l27.5-7.9l-2.2-8.4l-10.1,1.1L7.2,111l139.3-15.6
			l40.6-5.7l0.3-3.9l12.2-1.4l1.9-25.1L271.8,82"/>
	</g>
	<g>
		<path fill="#DEE0E2" d="M273.3,210.6l-78.8-3.9l-16.8,202.1l-29.1,9.2l-72.4,19.7L-0.3,155l27.5-7.9l-2.2-8.4l-10.1,1.1L6.2,108
			l139.3-15.6l40.6-5.7l0.3-3.9l12.2-1.4l1.9-25.1L270.8,79"/>
	</g>
</g>
</svg>
